<svg xmlns="http://www.w3.org/2000/svg" width="42.105" height="48" viewBox="0 0 42.105 48">
  <g>
    <g>
      <path d="M38.773,18.356A7.057,7.057,0,0,0,33.35,6.782c-.017,0-.034,0-.05,0A9.163,9.163,0,0,0,16.565,4.5,7.035,7.035,0,0,0,7.642,11.26a5.222,5.222,0,1,0-3.012,10A7.841,7.841,0,1,0,11.3,35.447a7.045,7.045,0,0,0,5.94,3.256,6.945,6.945,0,0,0,1.037-.076l7.581-3.352a6.92,6.92,0,0,0,.708.037A7.053,7.053,0,0,0,33.6,28.7a5.784,5.784,0,1,0,5.169-10.344Z" fill="#79ccb8"/>
      <path d="M32.041,22.027a14.066,14.066,0,0,0,2.25-4.448l-1.4-.431c-2.082,6.794-7.668,7.936-8.056,8.007-.427-3.14-.988-6.516-1.73-10.019A9.6,9.6,0,0,0,26.842,12.1a2.231,2.231,0,0,1,2.015.618L29.9,11.682a3.569,3.569,0,0,0-2.243-1.07,7.039,7.039,0,0,0,.476-1.789l-1.458-.185c-.378,2.985-3,4.564-3.9,5.023q-.393-1.749-.846-3.528A3.594,3.594,0,0,1,19.568,13.5c.275,1.552.472,3.063.61,4.537-1.872-1.048-4.88-3.141-6.024-6.266l-1.38.5a11.135,11.135,0,0,0,2.41,3.776,7.7,7.7,0,0,1-4.264-.1l-.489,1.386a9.539,9.539,0,0,0,2.9.454,7.275,7.275,0,0,0,3.021-.615,19.475,19.475,0,0,0,3.96,2.6,56.151,56.151,0,0,1-.678,12.881,16.3,16.3,0,0,1-9.447-9.5l-1.37.529a18.388,18.388,0,0,0,2.169,4.048,6.781,6.781,0,0,0-3.561.22l.494,1.385a6.532,6.532,0,0,1,4.919.59,16.982,16.982,0,0,0,6.53,4.184,43.687,43.687,0,0,1-3.118,10.063h9.9A133.05,133.05,0,0,0,25.018,26.6a12,12,0,0,0,5.6-3,5.847,5.847,0,0,1,4.362.856l.806-1.229A7.272,7.272,0,0,0,32.041,22.027Z" fill="#f1bb6b"/>
      <path d="M34.66,48c-7.349-3.546-19.3-3.546-26.653,0L7.05,46.015c7.875-3.8,20.69-3.8,28.566,0Z" fill="#7a8e9b"/>
    </g>
    <g>
      <circle cx="28.885" cy="30.258" r="1.102" fill="#fddc85"/>
      <circle cx="31.089" cy="26.585" r="1.102" fill="#fddc85"/>
      <circle cx="38.435" cy="25.116" r="1.102" fill="#fddc85"/>
      <circle cx="36.231" cy="19.975" r="1.102" fill="#fddc85"/>
      <circle cx="36.231" cy="14.098" r="1.102" fill="#fddc85"/>
      <circle cx="32.558" cy="13.363" r="1.102" fill="#fddc85"/>
      <circle cx="31.089" cy="8.956" r="1.102" fill="#fddc85"/>
      <circle cx="24.478" cy="8.221" r="1.102" fill="#fddc85"/>
      <circle cx="20.07" cy="6.752" r="1.102" fill="#fddc85"/>
      <circle cx="16.398" cy="10.425" r="1.102" fill="#fddc85"/>
      <circle cx="11.99" cy="8.221" r="1.102" fill="#fddc85"/>
      <circle cx="10.521" cy="13.363" r="1.102" fill="#fddc85"/>
      <circle cx="6.113" cy="15.567" r="1.102" fill="#fddc85"/>
      <circle cx="8.317" cy="19.975" r="1.102" fill="#fddc85"/>
      <circle cx="13.46" cy="22.913" r="1.102" fill="#fddc85"/>
      <circle cx="16.398" cy="26.585" r="1.102" fill="#fddc85"/>
      <circle cx="15.663" cy="34.665" r="1.102" fill="#fddc85"/>
      <circle cx="11.256" cy="31.727" r="1.102" fill="#fddc85"/>
      <circle cx="6.113" cy="33.196" r="1.102" fill="#fddc85"/>
      <circle cx="3.91" cy="28.789" r="1.102" fill="#fddc85"/>
      <circle cx="6.113" cy="25.116" r="1.102" fill="#fddc85"/>
      <circle cx="17.867" cy="21.444" r="1.102" fill="#fddc85"/>
      <circle cx="28.15" cy="3.814" r="1.102" fill="#fddc85"/>
      <circle cx="29.62" cy="17.771" r="1.102" fill="#fddc85"/>
      <circle cx="26.681" cy="14.833" r="1.102" fill="#fddc85"/>
    </g>
  </g>
</svg>
